<svg t="1736736931279" class="icon" viewBox="0 0 1024 1024" version="1.1" xmlns="http://www.w3.org/2000/svg"
  p-id="31701" width="200" height="200">
  <path
    d="M512 864c-247.04 0-448-172.256-448-384l0-32 128 0 0 64-62.08 0c19.328 161.472 183.328 288 382.08 288s362.752-126.528 382.08-288l-62.08 0 0-64 128 0 0 32c0 211.744-200.96 384-448 384z"
    fill="#fff" p-id="31702"></path>
  <path
    d="M512 320c-88.224 0-160-71.776-160-160s71.776-160 160-160 160 71.776 160 160-71.776 160-160 160zM512 64c-52.928 0-96 43.072-96 96s43.072 96 96 96 96-43.072 96-96-43.072-96-96-96z"
    fill="#fff" p-id="31703"></path>
  <path d="M480 288l64 0 0 448-64 0 0-448z" fill="#fff" p-id="31704"></path>
  <path
    d="M512 1024c-52.928 0-96-43.072-96-96l64 0c0 17.664 14.336 32 32 32s32-14.336 32-32l64 0c0 52.928-43.072 96-96 96z"
    fill="#fff" p-id="31705"></path>
</svg>