<svg t="1737099821924" class="icon" viewBox="0 0 1024 1024" version="1.1" xmlns="http://www.w3.org/2000/svg" p-id="6237"
  width="200" height="200">
  <path
    d="M966.078 555.124l4.938-76.936-69.092-34.186-15.126-75.59-75.62-15.126-34.156-69.122-76.966 4.968-50.874-57.904-73.058 24.686L512 213.166l-64.154 42.748-73.046-24.686-50.888 57.904-76.934-4.968-34.186 69.122-75.592 15.126-15.124 75.59-69.122 34.186 4.968 76.936L0.018 606.028l25.498 75.342L512 810.834l486.484-129.464 25.498-75.342z"
    fill="#EC5564" p-id="6238"></path>
  <path d="M576.124 255.914L512 213.166l-64.154 42.748 64.03 486.484-2.486 21.344z" fill="#D94452" p-id="6239"></path>
  <path d="M323.912 289.132l-76.934-4.968-34.186 69.122L511.5 742.648l1.844 3.842z" fill="#D94452" p-id="6240"></path>
  <path
    d="M52.954 478.188l4.968 76.936 452.062 187.304 0.594-0.22L122.076 444.002zM901.924 444.002L512 743.274l454.078-188.15 4.938-76.936zM811.178 353.286l-34.156-69.122-76.966 4.968L512 743.274z"
    fill="#D94452" p-id="6241"></path>
  <path
    d="M314.13 736.242c5.844-104.81 92.966-188.274 199.212-188.274 105.964 0 192.9 83.028 199.148 187.43v22.092L512 810.834l-197.87-52.656v-21.936z"
    fill="#FECD57" p-id="6242"></path>
  <path
    d="M513.344 526.626c-121.964 0-220.852 98.872-220.852 220.836 0 1.688 0.032 3.344 0.062 5l42.67 11.344v-11.688l-0.016-0.468c-0.032-1.658-0.046-2.968-0.046-4.188 0-47.592 18.532-92.342 52.186-125.996 33.656-33.656 78.404-52.188 125.996-52.188s92.342 18.532 125.994 52.188c33.658 33.654 52.188 78.404 52.188 125.996 0 1.156-0.032 2.31-0.032 3.438V763.088l42.654-11.344c0.032-1.438 0.032-2.844 0.032-4.282 0-121.966-98.872-220.836-220.836-220.836z"
    fill="#F5BA45" p-id="6243"></path>
</svg>