<svg t="1736847962822" class="icon" viewBox="0 0 1024 1024" version="1.1" xmlns="http://www.w3.org/2000/svg" p-id="5902" width="200" height="200"><path d="M475.400704 548.601856l0 219.414528q0 45.71136-31.997952 77.709312t-77.709312 31.997952l-219.414528 0q-45.71136 0-77.709312-31.997952t-31.997952-77.709312l0-402.259968q0-59.424768 23.141376-113.421312t62.567424-93.422592 93.422592-62.567424 113.421312-23.141376l36.569088 0q14.856192 0 25.71264 10.856448t10.856448 25.71264l0 73.138176q0 14.856192-10.856448 25.71264t-25.71264 10.856448l-36.569088 0q-60.567552 0-103.421952 42.8544t-42.8544 103.421952l0 18.284544q0 22.85568 15.998976 38.854656t38.854656 15.998976l127.991808 0q45.71136 0 77.709312 31.997952t31.997952 77.709312zm511.967232 0l0 219.414528q0 45.71136-31.997952 77.709312t-77.709312 31.997952l-219.414528 0q-45.71136 0-77.709312-31.997952t-31.997952-77.709312l0-402.259968q0-59.424768 23.141376-113.421312t62.567424-93.422592 93.422592-62.567424 113.421312-23.141376l36.569088 0q14.856192 0 25.71264 10.856448t10.856448 25.71264l0 73.138176q0 14.856192-10.856448 25.71264t-25.71264 10.856448l-36.569088 0q-60.567552 0-103.421952 42.8544t-42.8544 103.421952l0 18.284544q0 22.85568 15.998976 38.854656t38.854656 15.998976l127.991808 0q45.71136 0 77.709312 31.997952t31.997952 77.709312z" fill="#272636" p-id="5903"></path></svg>